<svg width="1364" height="472" viewBox="0 0 1364 472" fill="none" xmlns="http://www.w3.org/2000/svg">
<path d="M210.517 0.860868C202.264 2.20819 189.885 6.67885 187.215 9.31225C186.79 9.74094 185.091 10.9045 183.392 11.8844C181.754 12.8643 174.775 17.2737 167.918 21.6219C161.061 25.97 152.626 31.2981 149.107 33.5028C129.871 45.6287 107.843 59.898 105.294 61.919C102.26 64.3687 100.622 67.0633 99.4083 71.5952C98.3768 75.5759 99.469 104.972 100.804 109.259C102.078 113.546 104.809 116.547 113.183 122.855C134.058 138.778 143.828 146.31 147.954 149.617C150.503 151.7 155.539 155.619 159.18 158.436C169.314 166.214 181.45 175.768 194.011 185.873C196.196 187.587 202.446 192.548 207.968 196.835C213.49 201.122 219.012 205.47 220.347 206.572C223.382 209.083 231.027 215.024 238.613 220.903C241.95 223.475 245.045 225.925 245.47 226.292C245.834 226.721 248.807 229.109 252.023 231.559C255.24 234.009 259.366 237.193 261.247 238.602C263.068 240.072 264.706 241.113 264.827 240.99C265.009 240.806 264.099 214.656 263.553 203.878C263.371 200.999 263.068 192.487 262.825 184.893L262.4 171.113L277.692 161.008C331.395 125.488 339.284 120.038 341.59 116.853C345.231 111.892 345.352 110.851 344.685 90.8864C344.139 74.4123 344.017 72.8813 342.743 70.1867C340.983 66.3284 338.01 63.4501 332.063 59.7143C324.902 55.2436 304.877 42.5053 298.991 38.6471C278.177 24.9902 253.722 9.31225 249.717 7.0463C242.618 3.00433 229.328 -0.119001 220.044 0.00348224C217.556 0.0647241 213.308 0.432175 210.517 0.860868Z" fill="white"/>
<path d="M46.6744 98.1392C44.6741 98.7554 41.3402 100.357 39.3399 101.651C22.1855 112.433 8.30441 121.86 5.6373 124.448C4.42498 125.68 2.66711 128.33 1.69725 130.425C0.0606162 133.998 0 134.553 0 143.425C0 152.79 0.909242 182.611 1.21232 183.166C1.33356 183.35 1.57602 190.128 1.75787 198.261C2.00033 206.394 2.30341 215.389 2.42465 218.285C2.54588 221.181 2.97019 233.504 3.33389 245.703C4.54621 285.259 4.97052 293.268 6.3647 298.259C9.21366 308.672 13.2143 314.155 22.7917 320.871C30.5505 326.355 40.3704 333.44 47.8868 339.047C62.9802 350.261 64.3744 350.938 72.1332 351C78.2555 351 80.0739 350.199 92.0153 342.251C96.9252 338.985 106.078 332.886 112.322 328.696C118.565 324.506 124.748 319.885 126.142 318.407C130.143 314.094 131.537 309.473 131.537 300.539C131.537 292.406 130.749 263.756 130.325 256.485C130.143 253.959 129.9 246.874 129.719 240.774C129.537 234.674 129.112 222.105 128.809 212.801C128.143 194.934 128.203 193.701 130.143 187.602C132.386 180.455 139.72 173.985 147.661 172.137C150.207 171.521 154.208 170.904 155.965 170.843C156.45 170.843 151.783 166.961 145.661 162.217C139.599 157.473 128.446 148.785 120.929 142.87C113.413 137.017 101.714 127.96 94.8643 122.661C88.0147 117.424 79.1647 110.585 75.164 107.381C62.9196 97.7079 55.2819 95.2434 46.6744 98.1392Z" fill="white"/>
<path d="M365.176 118.721C361.957 119.948 356.794 122.956 349.02 128.112C345.315 130.568 340.396 133.76 338.088 135.172C329.645 140.389 318.105 148.369 315.555 150.702C309.906 155.981 308.509 161.444 308.995 176.422C309.177 182.253 309.481 192.627 309.663 199.564C310.088 214.112 311.06 241.735 312.093 267.823C312.518 277.461 311.85 282.372 309.481 287.221C305.715 295.078 296.24 300.234 285.733 300.234H283L288.163 304.224C290.956 306.434 303.772 316.133 316.648 325.893C329.524 335.592 343.432 346.15 347.623 349.342C351.814 352.473 356.612 356.094 358.252 357.322C359.953 358.55 363.9 361.558 367.059 363.952C374.469 369.538 379.085 371.563 385.644 371.932C392.386 372.3 394.876 371.379 405.748 364.258C410.667 361.066 418.381 356.033 422.875 353.086C432.289 346.948 435.022 344.677 437.513 341.055C440.549 336.635 441.278 332.523 440.914 322.333C440.732 317.422 440.428 308.89 440.246 303.304C440.064 297.718 439.821 289.185 439.638 284.274C439.456 279.364 439.213 270.524 439.031 264.631C438.849 258.739 438.606 249.899 438.424 244.988C438.241 240.078 437.999 231.668 437.816 226.266C436.541 185.323 436.116 176.606 435.387 172.309C434.354 166.723 430.771 158.805 427.552 154.937C424.029 150.825 386.98 123.386 380.421 120.01C376.412 117.984 368.82 117.37 365.176 118.721Z" fill="white"/>
<path d="M175.41 233.187C175.531 234.965 176.077 248.143 176.561 262.486C177.046 276.829 177.591 291.05 177.773 294.114L178.016 299.754L169.714 305.209C165.169 308.212 158.806 312.319 155.655 314.28C152.504 316.242 145.414 320.839 139.9 324.394C134.386 328.01 127.599 332.424 124.751 334.201C112.146 342.17 104.511 347.686 102.148 350.506C98.8754 354.429 98.633 356.513 99.2996 375.146C99.6632 384.463 100.148 393.106 100.451 394.27C102.329 401.871 103.299 402.729 127.235 418.911C139.052 426.879 152.807 436.196 157.776 439.628C184.257 457.894 196.255 465.74 199.891 467.272C209.587 471.257 221.222 472.85 230.917 471.563C242.612 469.969 249.702 467.211 260.186 460.162C262.852 458.385 268.306 454.83 272.305 452.316C282.849 445.574 293.332 438.832 302.907 432.579C307.512 429.515 313.633 425.531 316.541 423.692C319.45 421.853 325.267 417.93 329.449 415.049C336.478 410.268 337.326 409.533 338.962 406.284C340.598 402.974 340.78 402.116 340.962 394.944C341.083 390.715 340.901 381.827 340.598 375.269C339.75 358.719 338.902 356.942 327.812 348.912C324.601 346.583 318.723 342.108 314.723 339.044C310.724 335.918 301.877 329.114 295.029 323.904C288.182 318.632 275.82 308.948 267.457 302.328C259.156 295.708 250.672 289.027 248.672 287.433C219.585 264.57 207.708 255.253 196.558 246.55C189.226 240.849 181.651 234.842 179.712 233.126C177.773 231.41 175.955 230 175.652 230C175.41 230 175.289 231.471 175.41 233.187Z" fill="white"/>
<path d="M1148.59 105.331C1144.53 106.748 1141.9 108.568 1138.99 112.008C1135.41 116.155 1133.83 120.302 1133.49 126.422C1133.26 131.885 1133.88 135.274 1135.93 139.421C1138.65 144.883 1143.77 149.132 1150.07 151.105C1152.99 152.015 1158.86 152.167 1162.02 151.357C1168.13 149.891 1173.82 144.934 1176.88 138.511C1178.5 135.021 1178.55 134.869 1178.55 128.648C1178.55 120.555 1177.59 117.622 1173.34 112.463C1171 109.58 1169.66 108.518 1166.41 106.748C1162.45 104.674 1162.3 104.623 1156.86 104.522C1152.51 104.421 1150.74 104.573 1148.59 105.331Z" fill="white"/>
<path d="M578.23 107.86C571.015 108.922 566.524 112.159 563.849 118.128L562.224 121.82L562.081 242.196L561.986 362.572L562.989 363.432C563.897 364.241 565.426 364.342 579.185 364.342C592.706 364.342 594.426 364.241 595 363.482C595.573 362.825 595.716 346.64 595.907 264.096L596.146 165.469L603.599 177.051C612.581 190.96 622.185 205.982 644.544 241.184C650.23 250.086 655.676 258.634 656.727 260.151C657.731 261.668 659.498 264.4 660.597 266.22C662.795 269.812 675.934 290.447 680.903 298.085C682.575 300.715 685.585 305.368 687.496 308.453C707.275 339.761 716.831 354.429 719.076 356.907C721.752 359.891 726.482 363.28 729.54 364.443C733.075 365.809 742.344 366.315 746.357 365.354C751.851 364.039 756.295 360.397 758.492 355.339L759.543 352.962L759.687 232.181C759.83 96.379 760.165 108.72 756.104 108.265C752.377 107.911 730.543 107.86 728.823 108.214C727.963 108.417 727.007 109.023 726.673 109.63C726.243 110.44 726.052 133.2 725.861 208.966L725.622 307.29L721.083 300.007C713.009 287.16 683.674 241.235 674.309 226.769C670.153 220.295 659.69 203.959 652.953 193.388C651.281 190.758 649.083 187.319 648.08 185.801C647.076 184.284 640.34 173.713 633.126 162.383C602.214 113.677 603.456 115.497 598.248 111.755C596.815 110.743 594.331 109.479 592.658 108.922C589.266 107.81 582.147 107.304 578.23 107.86Z" fill="white"/>
<path d="M941.813 178.569C932.783 180.238 925.139 184.284 919.501 190.404C912.143 198.395 909.659 203.453 902.875 224.493C901.632 228.388 900.247 232.485 899.769 233.598C899.339 234.71 898.049 238.251 896.95 241.437C895.851 244.624 893.367 251.806 891.408 257.369C889.449 262.933 887.347 269.205 886.726 271.278C886.057 273.352 883.143 281.799 880.18 289.992C877.266 298.186 873.731 308.049 872.393 311.842C871.055 315.686 869.813 318.822 869.67 318.822C869.526 318.822 868.38 315.787 867.042 312.095C865.752 308.453 863.315 301.676 861.643 297.073C859.971 292.471 857.773 286.351 856.77 283.417C855.766 280.484 853.951 275.375 852.709 272.037C848.361 260.101 845.16 251.199 842.867 244.472C841.529 240.729 839.809 235.924 838.997 233.901C838.232 231.827 836.512 227.124 835.27 223.532C833.168 217.463 824.95 194.298 822.323 187.066C820.794 182.766 820.125 181.856 818.118 181.199C817.019 180.895 811.047 180.743 801.253 180.845C787.732 180.996 786.012 181.097 785.295 181.856C784.531 182.665 784.531 182.868 785.2 184.638C790.503 198.547 792.414 203.504 792.987 204.768C793.322 205.577 795.137 210.281 796.953 215.137C798.816 219.992 802.161 228.742 804.454 234.609C806.699 240.426 809.518 247.861 810.713 251.047C811.955 254.233 815.06 262.427 817.688 269.255C820.364 276.083 823.421 284.024 824.568 286.958C825.667 289.891 827.626 294.898 828.82 298.085C841.099 330.404 847.262 346.437 849.842 353.013C851.562 357.312 852.948 360.903 852.948 361.105C852.948 361.611 845.59 380.881 843.153 386.748C838.041 399.089 832.069 405.513 823.756 407.586C819.79 408.547 813.006 408.547 808.754 407.536C803.737 406.322 800.775 406.17 799.772 407.03C798.816 407.839 798.386 410.267 797.335 420.99C796.953 425.036 796.475 429.588 796.284 431.105C795.997 433.685 796.093 433.988 797.24 435.253C800.775 438.945 819.981 441.17 830.54 438.995C847.405 435.607 859.827 424.783 869.335 405.209C870.482 402.782 873.205 396.206 875.307 390.542C884.91 364.898 888.398 355.44 891.121 347.904C894.227 339.104 898.049 328.735 901.202 320.339C902.253 317.406 903.687 313.562 904.308 311.741C904.929 309.92 906.41 305.823 907.652 302.637C908.894 299.45 910.71 294.443 911.713 291.51C912.717 288.576 914.198 284.58 915.01 282.608C915.822 280.585 917.447 276.184 918.641 272.745C919.835 269.356 923.753 258.785 927.336 249.327C930.872 239.819 934.742 229.4 935.888 226.112C939.997 214.428 942.004 211.9 948.406 210.686C954.665 209.472 960.159 212.203 962.787 217.767C963.599 219.537 965.845 225.505 967.803 231.069C969.762 236.632 974.301 249.378 977.884 259.392C981.468 269.407 985.433 280.534 986.723 284.176C988.013 287.767 990.068 293.482 991.262 296.82C992.504 300.158 994.75 306.531 996.279 310.982C997.807 315.433 1000.29 322.362 1001.77 326.408C1004.54 333.945 1005.26 336.018 1008.61 345.122C1011.95 354.378 1012.95 356.401 1015.53 359.183C1020.36 364.443 1025.37 366.062 1035.46 365.758C1040.66 365.556 1042.43 365.303 1044.68 364.393C1047.97 363.027 1051.89 359.79 1053.66 356.958C1054.81 355.137 1060.01 341.531 1063.88 330.202C1064.74 327.673 1066.7 322.362 1068.18 318.316C1069.66 314.27 1071.62 308.908 1072.48 306.43C1075.54 297.478 1082.75 276.943 1085.53 269.255C1087.05 264.956 1089.25 258.785 1090.35 255.599C1092.36 249.985 1094.46 244.017 1100.05 228.287C1101.48 224.241 1104.45 215.845 1106.64 209.573C1108.84 203.301 1111.37 196.119 1112.28 193.641C1113.19 191.112 1114.43 187.622 1115.05 185.801L1116.2 182.514L1115.24 181.654C1114.34 180.895 1112.66 180.794 1100.05 180.794C1092.26 180.794 1084.9 180.996 1083.71 181.199C1081.08 181.755 1080.6 182.463 1078.55 188.785C1077.64 191.466 1075.88 196.928 1074.54 200.975C1073.25 205.021 1071.19 211.141 1070 214.631C1068.8 218.121 1066.22 225.859 1064.27 231.827C1062.31 237.796 1058.77 248.366 1056.48 255.346C1045.63 288.121 1041.48 300.867 1039.56 306.936C1038.42 310.527 1037.13 314.32 1036.7 315.281C1036.32 316.242 1035.46 318.872 1034.88 321.098L1033.74 325.093L1031.68 319.075C1027.05 305.419 1016.25 273.099 1010.66 256.105C1008.56 249.833 1005.45 240.375 1003.68 235.115C1000.77 226.264 999.623 223.027 994.989 209.573C988.778 191.769 978.171 181.957 961.927 178.973C958.2 178.265 944.871 178.012 941.813 178.569Z" fill="white"/>
<path d="M1140.33 182.008L1139.13 183.222V272.796C1139.13 361.661 1139.13 362.319 1140.09 363.331C1141 364.292 1141.66 364.342 1156.28 364.342C1171.52 364.342 1171.57 364.342 1172.29 363.229C1172.96 362.218 1173.05 352.81 1173.05 273.049C1173.05 224.089 1172.91 183.525 1172.77 182.969C1172.24 180.946 1170.86 180.743 1155.81 180.743H1141.47L1140.33 182.008Z" fill="white"/>
<path d="M1198.42 181.199C1197.95 181.553 1198.76 182.969 1202.05 187.369C1204.4 190.555 1207.36 194.703 1208.65 196.675C1211.13 200.418 1216.96 209.017 1221.07 214.884C1223.51 218.373 1230.43 228.388 1235.64 235.924C1237.07 238.048 1241.8 244.876 1246.2 251.098C1250.55 257.319 1255.56 264.501 1257.33 267.08L1260.58 271.733L1254.9 279.725C1251.74 284.125 1246.01 292.167 1242.14 297.579C1235.64 306.582 1221.12 327.167 1209.84 343.251C1207.36 346.791 1204.44 350.888 1203.39 352.406C1197.8 360.397 1195.89 363.432 1196.32 363.887C1196.61 364.19 1203.92 364.342 1215.19 364.241L1233.63 364.089L1235.5 362.521C1236.5 361.661 1238.46 359.284 1239.85 357.211C1241.18 355.137 1243.67 351.445 1245.34 349.017C1246.96 346.539 1249.5 342.796 1250.98 340.671C1252.46 338.497 1256.76 332.276 1260.53 326.712C1264.31 321.199 1269.18 314.118 1271.33 311.033C1273.53 307.947 1276.49 303.648 1277.92 301.473C1279.41 299.299 1281.56 296.264 1282.7 294.645C1283.9 293.077 1286.57 289.233 1288.67 286.199C1290.78 283.114 1294.22 278.258 1296.32 275.324C1300.04 270.115 1307.45 259.595 1324.75 234.913C1329.48 228.135 1336.88 217.615 1341.23 211.495C1345.58 205.375 1349.54 199.71 1350.07 198.951C1350.59 198.142 1351.88 196.271 1352.98 194.804C1358.71 186.914 1361.77 182.412 1361.77 181.907C1361.77 180.44 1326.47 180.339 1323.79 181.755C1322.36 182.514 1320.83 184.537 1315.05 193.186C1311.94 197.839 1303.77 209.927 1288.91 231.777C1284.18 238.756 1280.22 244.472 1280.07 244.421C1279.74 244.421 1274.44 236.48 1260.82 215.389C1248.16 195.866 1240.47 184.486 1238.51 182.514L1237.03 180.996L1218.06 180.895C1207.64 180.794 1198.81 180.946 1198.42 181.199Z" fill="white"/>
<path d="M1304.92 285.845C1303.72 287.716 1300.43 292.572 1297.51 296.669C1294.65 300.765 1291.35 305.469 1290.2 307.138L1288.2 310.122L1292.97 317.355C1295.65 321.351 1299.23 326.914 1301.05 329.696C1302.82 332.478 1305.68 336.828 1307.35 339.356C1309.03 341.885 1312.56 347.247 1315.19 351.242C1320.83 359.841 1322.6 362.066 1325.03 363.381C1326.75 364.292 1328.04 364.342 1345.29 364.342C1360.82 364.342 1363.73 364.241 1363.97 363.634C1364.21 362.926 1363.25 361.409 1351.07 344.111C1348.06 339.812 1343.19 332.832 1340.27 328.684C1337.41 324.487 1334.25 320.086 1333.35 318.822C1332.44 317.557 1326.32 308.858 1319.68 299.45C1313.09 290.093 1307.55 282.405 1307.35 282.405C1307.21 282.405 1306.11 283.973 1304.92 285.845Z" fill="white"/>
</svg>
