<svg width="441" height="472" viewBox="0 0 441 472" fill="none" xmlns="http://www.w3.org/2000/svg">
<path d="M210.517 0.86087C202.264 2.20819 189.885 6.67885 187.215 9.31224C186.79 9.74094 185.091 10.9045 183.392 11.8844C181.754 12.8643 174.775 17.2737 167.918 21.6219C161.061 25.97 152.626 31.2981 149.107 33.5028C129.871 45.6287 107.843 59.898 105.294 61.919C102.26 64.3687 100.622 67.0633 99.4083 71.5952C98.3768 75.5759 99.469 104.972 100.804 109.259C102.078 113.546 104.809 116.547 113.183 122.855C134.058 138.778 143.828 146.31 147.954 149.617C150.503 151.7 155.539 155.619 159.18 158.436C169.314 166.214 181.45 175.768 194.011 185.873C196.196 187.587 202.446 192.548 207.968 196.835C213.49 201.122 219.012 205.47 220.347 206.572C223.382 209.083 231.027 215.024 238.613 220.903C241.95 223.475 245.045 225.925 245.47 226.292C245.834 226.721 248.807 229.109 252.023 231.559C255.24 234.009 259.366 237.193 261.247 238.602C263.068 240.072 264.706 241.113 264.827 240.99C265.009 240.806 264.099 214.656 263.553 203.878C263.371 200.999 263.068 192.487 262.825 184.893L262.4 171.113L277.692 161.008C331.395 125.488 339.284 120.038 341.59 116.853C345.231 111.892 345.352 110.851 344.685 90.8864C344.139 74.4124 344.017 72.8813 342.743 70.1867C340.983 66.3284 338.01 63.4501 332.063 59.7143C324.902 55.2436 304.877 42.5053 298.991 38.6471C278.177 24.9902 253.722 9.31224 249.717 7.0463C242.618 3.00433 229.328 -0.119003 220.044 0.003479C217.556 0.0647278 213.308 0.432175 210.517 0.86087Z" fill="black"/>
<path d="M46.6744 98.1392C44.6741 98.7554 41.3402 100.357 39.3399 101.651C22.1855 112.433 8.30441 121.86 5.6373 124.448C4.42498 125.68 2.66711 128.33 1.69725 130.425C0.0606162 133.998 0 134.553 0 143.425C0 152.79 0.909242 182.611 1.21232 183.166C1.33356 183.35 1.57602 190.128 1.75787 198.261C2.00033 206.394 2.30341 215.389 2.42465 218.285C2.54588 221.181 2.97019 233.504 3.33389 245.703C4.54621 285.259 4.97052 293.268 6.3647 298.259C9.21366 308.672 13.2143 314.155 22.7917 320.871C30.5505 326.355 40.3704 333.44 47.8868 339.047C62.9802 350.261 64.3744 350.938 72.1332 351C78.2555 351 80.0739 350.199 92.0153 342.251C96.9252 338.985 106.078 332.886 112.322 328.696C118.565 324.506 124.748 319.885 126.142 318.407C130.143 314.094 131.537 309.473 131.537 300.539C131.537 292.406 130.749 263.756 130.325 256.485C130.143 253.959 129.9 246.874 129.719 240.774C129.537 234.674 129.112 222.105 128.809 212.801C128.143 194.934 128.203 193.701 130.143 187.602C132.386 180.455 139.72 173.985 147.661 172.137C150.207 171.521 154.208 170.904 155.965 170.843C156.45 170.843 151.783 166.961 145.661 162.217C139.599 157.473 128.446 148.785 120.929 142.87C113.413 137.017 101.714 127.96 94.8643 122.661C88.0147 117.424 79.1647 110.585 75.164 107.381C62.9196 97.7079 55.2819 95.2434 46.6744 98.1392Z" fill="black"/>
<path d="M365.176 118.721C361.957 119.948 356.794 122.956 349.02 128.112C345.315 130.568 340.396 133.76 338.088 135.172C329.645 140.389 318.105 148.369 315.555 150.702C309.906 155.981 308.509 161.444 308.995 176.422C309.177 182.253 309.481 192.627 309.663 199.564C310.088 214.112 311.06 241.735 312.093 267.823C312.518 277.461 311.85 282.372 309.481 287.221C305.715 295.078 296.24 300.234 285.733 300.234H283L288.163 304.224C290.956 306.434 303.772 316.133 316.648 325.893C329.524 335.592 343.432 346.15 347.623 349.342C351.814 352.473 356.612 356.094 358.252 357.322C359.953 358.55 363.9 361.558 367.059 363.952C374.469 369.538 379.085 371.563 385.644 371.932C392.386 372.3 394.876 371.379 405.748 364.258C410.667 361.066 418.381 356.033 422.875 353.086C432.289 346.948 435.022 344.677 437.513 341.055C440.549 336.635 441.278 332.523 440.914 322.333C440.732 317.422 440.428 308.89 440.246 303.304C440.064 297.718 439.821 289.185 439.638 284.274C439.456 279.364 439.213 270.524 439.031 264.631C438.849 258.739 438.606 249.899 438.424 244.988C438.241 240.078 437.999 231.668 437.816 226.266C436.541 185.323 436.116 176.606 435.387 172.309C434.354 166.723 430.771 158.805 427.552 154.937C424.029 150.825 386.98 123.386 380.421 120.01C376.412 117.984 368.82 117.37 365.176 118.721Z" fill="black"/>
<path d="M175.41 233.187C175.531 234.965 176.077 248.143 176.561 262.486C177.046 276.829 177.591 291.05 177.773 294.114L178.016 299.754L169.714 305.209C165.169 308.212 158.806 312.319 155.655 314.28C152.504 316.242 145.414 320.839 139.9 324.394C134.386 328.01 127.599 332.424 124.751 334.201C112.146 342.17 104.511 347.686 102.148 350.506C98.8754 354.429 98.633 356.513 99.2996 375.146C99.6632 384.463 100.148 393.106 100.451 394.27C102.329 401.871 103.299 402.729 127.235 418.911C139.052 426.879 152.807 436.196 157.776 439.628C184.257 457.894 196.255 465.74 199.891 467.272C209.587 471.257 221.222 472.85 230.917 471.563C242.612 469.969 249.702 467.211 260.186 460.162C262.852 458.385 268.306 454.83 272.305 452.316C282.849 445.574 293.332 438.832 302.907 432.579C307.512 429.515 313.633 425.531 316.541 423.692C319.45 421.853 325.267 417.93 329.449 415.049C336.478 410.268 337.326 409.533 338.962 406.284C340.598 402.974 340.78 402.116 340.962 394.944C341.083 390.715 340.901 381.827 340.598 375.269C339.75 358.719 338.902 356.942 327.812 348.912C324.601 346.583 318.723 342.108 314.723 339.044C310.724 335.918 301.877 329.114 295.029 323.904C288.182 318.632 275.82 308.948 267.457 302.328C259.156 295.708 250.672 289.027 248.672 287.433C219.585 264.57 207.708 255.253 196.558 246.55C189.226 240.849 181.651 234.842 179.712 233.126C177.773 231.41 175.955 230 175.652 230C175.41 230 175.289 231.471 175.41 233.187Z" fill="black"/>
</svg>
